<?xml version="1.0" encoding="UTF-8"?>
<svg xmlns="http://www.w3.org/2000/svg" xmlns:xlink="http://www.w3.org/1999/xlink" width="841.89pt" height="595.28pt" viewBox="0 0 841.89 595.28" version="1.1">
<g id="surface1">
<path style=" stroke:none;fill-rule:nonzero;fill:rgb(0%,67.098999%,90.99884%);fill-opacity:1;" d="M 191.621094 286.605469 C 191.621094 183.601563 278.417969 98.949219 391.203125 85.195313 C 306.238281 102.3125 242.054688 185.746094 242.054688 286.605469 C 242.054688 387.460938 306.238281 470.894531 391.203125 488.007813 C 278.417969 474.269531 191.621094 389.597656 191.621094 286.605469 "/>
<path style=" stroke:none;fill-rule:nonzero;fill:rgb(0%,67.098999%,90.99884%);fill-opacity:1;" d="M 454.464844 488.007813 C 539.433594 470.890625 603.621094 387.453125 603.621094 286.613281 C 603.621094 185.75 539.433594 102.316406 454.464844 85.199219 C 567.253906 98.953125 654.050781 183.605469 654.050781 286.613281 C 654.050781 389.597656 567.253906 474.265625 454.464844 488.007813 "/>
<path style=" stroke:none;fill-rule:nonzero;fill:rgb(27.49939%,12.89978%,43.899536%);fill-opacity:1;" d="M 269.71875 251.753906 L 304.90625 251.753906 L 304.90625 347.003906 L 284.878906 347.003906 L 284.878906 273.898438 C 284.878906 263.898438 281.847656 260.558594 269.71875 260.558594 Z M 269.71875 251.753906 "/>
<path style=" stroke:none;fill-rule:nonzero;fill:rgb(27.49939%,12.89978%,43.899536%);fill-opacity:1;" d="M 294.894531 236.585938 C 302.484375 236.585938 308.539063 230.511719 308.539063 222.933594 C 308.539063 215.347656 302.484375 209.28125 294.894531 209.28125 C 287.316406 209.28125 281.246094 215.347656 281.246094 222.933594 C 281.246094 230.511719 287.316406 236.585938 294.894531 236.585938 "/>
<path style=" stroke:none;fill-rule:nonzero;fill:rgb(27.49939%,12.89978%,43.899536%);fill-opacity:1;" d="M 361.292969 341.230469 C 340.664063 341.230469 335.511719 318.183594 335.511719 299.382813 C 335.511719 280.5625 340.664063 257.507813 361.292969 257.507813 C 381.929688 257.507813 387.082031 280.5625 387.082031 299.382813 C 387.082031 318.183594 381.929688 341.230469 361.292969 341.230469 M 361.292969 248.722656 C 331.566406 248.722656 314.273438 270.867188 314.273438 299.382813 C 314.273438 327.894531 331.566406 350.046875 361.292969 350.046875 C 391.019531 350.046875 408.3125 327.894531 408.3125 299.382813 C 408.3125 270.867188 391.019531 248.722656 361.292969 248.722656 "/>
<path style=" stroke:none;fill-rule:nonzero;fill:rgb(27.49939%,12.89978%,43.899536%);fill-opacity:1;" d="M 574.226563 347.003906 L 574.226563 279.960938 C 574.226563 256.605469 561.375 248.355469 544.789063 248.355469 C 535.898438 248.355469 527.800781 251.453125 514.765625 263.285156 L 514.765625 199.269531 L 479.574219 199.269531 L 479.574219 208.066406 C 490.488281 208.066406 494.738281 210.191406 494.738281 221.417969 L 494.738281 347.003906 L 514.765625 347.003906 L 514.765625 274.796875 C 529.019531 262.363281 535.695313 261.152344 541.164063 261.152344 C 548.832031 261.152344 554.199219 265.105469 554.199219 279.960938 L 554.199219 347.003906 Z M 574.226563 347.003906 "/>
<path style=" stroke:none;fill-rule:nonzero;fill:rgb(27.49939%,12.89978%,43.899536%);fill-opacity:1;" d="M 461.804688 292.710938 C 455.164063 289.894531 449.769531 288.113281 442.78125 285.679688 C 435.808594 283.253906 430.859375 278.441406 430.859375 272.074219 C 430.859375 262.367188 437.105469 257.246094 447.84375 257.246094 C 453.042969 257.246094 457.71875 258.023438 463.847656 262.515625 C 466.859375 264.734375 469.710938 269.351563 469.710938 277.210938 L 478.507813 277.210938 L 478.507813 258.90625 L 478.496094 258.296875 L 478.496094 257.171875 C 469.699219 252.929688 459.074219 248.722656 447.84375 248.722656 C 430.257813 248.722656 414.171875 255.390625 414.171875 275.714844 C 414.171875 286.949219 421.457031 296.640625 433.289063 301.800781 C 440.414063 304.917969 445.308594 306.117188 452.585938 308.855469 C 461.078125 311.882813 466.65625 316.671875 466.65625 324.554688 C 466.65625 331.828125 463.628906 341.242188 447.84375 341.242188 C 437.835938 341.242188 426.011719 335.476563 416.601563 325.46875 L 416.601563 342.457031 C 424.792969 347.003906 436.625 350.046875 447.84375 350.046875 C 466.046875 350.046875 483.949219 340.949219 483.949219 322.121094 C 483.949219 306.164063 477.777344 299.476563 461.804688 292.710938 "/>
</g>
</svg>
