<?xml version="1.0" encoding="UTF-8"?>
<svg xmlns="http://www.w3.org/2000/svg" xmlns:xlink="http://www.w3.org/1999/xlink" width="131.13pt" height="158.46pt" viewBox="0 0 131.13 158.46" version="1.1">
<defs>
<clipPath id="clip1">
  <path d="M 14 146 L 30 146 L 30 158.460938 L 14 158.460938 Z M 14 146 "/>
</clipPath>
<clipPath id="clip2">
  <path d="M 32 146 L 46 146 L 46 158.460938 L 32 158.460938 Z M 32 146 "/>
</clipPath>
<clipPath id="clip3">
  <path d="M 48 142 L 64 142 L 64 158.460938 L 48 158.460938 Z M 48 142 "/>
</clipPath>
<clipPath id="clip4">
  <path d="M 66 146 L 82 146 L 82 158.460938 L 66 158.460938 Z M 66 146 "/>
</clipPath>
<clipPath id="clip5">
  <path d="M 84 146 L 98 146 L 98 158.460938 L 84 158.460938 Z M 84 146 "/>
</clipPath>
<clipPath id="clip6">
  <path d="M 99 142 L 116 142 L 116 158.460938 L 99 158.460938 Z M 99 142 "/>
</clipPath>
<clipPath id="clip7">
  <path d="M 0 0 L 131.128906 0 L 131.128906 134 L 0 134 Z M 0 0 "/>
</clipPath>
</defs>
<g id="surface1">
<g clip-path="url(#clip1)" clip-rule="nonzero">
<path style=" stroke:none;fill-rule:nonzero;fill:rgb(14.498901%,23.899841%,50.999451%);fill-opacity:1;" d="M 19.855469 158.089844 L 14.304688 158.089844 C 15.304688 157.238281 15.410156 156.386719 15.410156 155.058594 L 15.410156 149.457031 C 15.410156 148.101563 15.304688 147.277344 14.304688 146.429688 L 17.40625 146.429688 C 17.800781 146.429688 18.066406 146.375 18.355469 146.058594 L 18.355469 147.625 C 19.539063 146.722656 21.167969 146.03125 23.351563 146.03125 C 26.875 146.03125 28.558594 147.570313 28.558594 150.703125 L 28.558594 155.058594 C 28.558594 156.386719 28.613281 157.238281 29.636719 158.089844 L 24.113281 158.089844 C 25.113281 157.238281 25.191406 156.414063 25.191406 155.058594 L 25.191406 151.953125 C 25.191406 149.484375 24.667969 148.207031 22.429688 148.207031 C 19.984375 148.207031 18.75 149.507813 18.75 152.085938 L 18.75 155.058594 C 18.75 156.386719 18.828125 157.238281 19.855469 158.089844 "/>
</g>
<g clip-path="url(#clip2)" clip-rule="nonzero">
<path style=" stroke:none;fill-rule:nonzero;fill:rgb(14.498901%,23.899841%,50.999451%);fill-opacity:1;" d="M 43.84375 158.140625 C 42.820313 158.140625 41.1875 158.460938 39.003906 158.460938 C 34.640625 158.460938 32.429688 156.363281 32.429688 152.402344 C 32.429688 148.472656 35.058594 146.03125 39.320313 146.03125 C 43.527344 146.03125 45.738281 148.15625 45.738281 152.246094 C 45.738281 152.695313 45.710938 153.148438 45.660156 153.625 C 45.292969 153.386719 44.949219 153.359375 44.582031 153.359375 L 36.007813 153.359375 C 36.035156 155.21875 37.320313 156.042969 40.058594 156.042969 C 41.898438 156.042969 43.421875 155.699219 44.921875 154.792969 L 44.921875 158.246094 C 44.476563 158.195313 44.132813 158.140625 43.84375 158.140625 M 42.1875 151.15625 C 42.136719 149.351563 41.109375 148.421875 39.109375 148.421875 C 37.113281 148.421875 36.058594 149.324219 36.007813 151.15625 L 42.1875 151.15625 "/>
</g>
<g clip-path="url(#clip3)" clip-rule="nonzero">
<path style=" stroke:none;fill-rule:nonzero;fill:rgb(14.498901%,23.899841%,50.999451%);fill-opacity:1;" d="M 57.472656 146.03125 C 61.546875 146.03125 63.835938 148.261719 63.835938 152.246094 C 63.835938 155.964844 61.285156 158.460938 57.734375 158.460938 C 55.5 158.460938 53.867188 157.929688 52.765625 156.785156 C 52.710938 158.035156 52.394531 158.089844 51.265625 158.089844 L 48.792969 158.089844 C 49.6875 157.34375 49.84375 156.492188 49.84375 155.113281 L 49.84375 145.417969 C 49.84375 144.144531 49.765625 143.320313 48.738281 142.285156 L 53.421875 142.285156 C 53.210938 142.445313 53.183594 142.605469 53.183594 142.84375 L 53.183594 147.703125 C 54.210938 146.589844 55.65625 146.03125 57.472656 146.03125 M 60.339844 152.246094 C 60.339844 149.640625 59.101563 148.289063 56.945313 148.289063 C 54.710938 148.289063 53.316406 149.773438 53.316406 152.246094 C 53.316406 154.847656 54.554688 156.230469 56.710938 156.230469 C 58.972656 156.230469 60.339844 154.6875 60.339844 152.246094 "/>
</g>
<g clip-path="url(#clip4)" clip-rule="nonzero">
<path style=" stroke:none;fill-rule:nonzero;fill:rgb(14.498901%,23.899841%,50.999451%);fill-opacity:1;" d="M 74.609375 146.03125 C 79.054688 146.03125 81.5 148.261719 81.5 152.246094 C 81.5 155.988281 78.710938 158.460938 73.871094 158.460938 C 69.453125 158.460938 66.980469 156.203125 66.980469 152.351563 C 66.980469 148.445313 69.769531 146.03125 74.609375 146.03125 M 70.585938 152.429688 C 70.585938 154.769531 71.871094 156.070313 74.132813 156.070313 C 76.527344 156.070313 77.898438 154.636719 77.898438 152.246094 C 77.898438 149.75 76.660156 148.421875 74.425781 148.421875 C 72.003906 148.421875 70.585938 149.855469 70.585938 152.429688 "/>
</g>
<g clip-path="url(#clip5)" clip-rule="nonzero">
<path style=" stroke:none;fill-rule:nonzero;fill:rgb(14.498901%,23.899841%,50.999451%);fill-opacity:1;" d="M 91.226563 156.070313 C 92.753906 156.070313 93.570313 155.539063 93.570313 154.769531 C 93.570313 153.917969 92.621094 153.597656 90.910156 153.441406 C 86.597656 153.070313 84.496094 152.589844 84.496094 149.828125 C 84.496094 147.277344 86.703125 146.03125 91.199219 146.03125 C 93.121094 146.03125 94.832031 146.429688 96.304688 146.429688 L 96.671875 146.429688 L 95.777344 149.457031 C 93.882813 148.738281 92.097656 148.316406 90.308594 148.316406 C 88.886719 148.316406 88.097656 148.871094 88.097656 149.617188 C 88.097656 150.679688 89.203125 150.652344 90.992188 150.8125 C 95.148438 151.183594 97.171875 151.765625 97.171875 154.421875 C 97.171875 156.917969 94.960938 158.457031 90.832031 158.457031 C 88.914063 158.457031 87.414063 158.113281 86.335938 158.113281 C 86.019531 158.113281 85.679688 158.167969 85.285156 158.273438 L 84.496094 154.582031 C 86.992188 155.566406 89.230469 156.070313 91.226563 156.070313 "/>
</g>
<g clip-path="url(#clip6)" clip-rule="nonzero">
<path style=" stroke:none;fill-rule:nonzero;fill:rgb(14.498901%,23.899841%,50.999451%);fill-opacity:1;" d="M 104.429688 155.351563 C 104.429688 156.414063 104.484375 157.210938 105.507813 158.089844 L 99.960938 158.089844 C 100.878906 157.34375 101.089844 156.496094 101.089844 155.058594 L 101.089844 145.417969 C 101.089844 144.039063 100.90625 143.242188 99.960938 142.285156 L 104.640625 142.285156 C 104.457031 142.472656 104.429688 142.710938 104.429688 143 L 104.429688 147.703125 C 105.300781 146.746094 106.664063 146.03125 108.929688 146.03125 C 112.503906 146.03125 114.214844 147.542969 114.214844 150.703125 L 114.214844 155.058594 C 114.214844 156.386719 114.269531 157.238281 115.292969 158.089844 L 109.769531 158.089844 C 110.769531 157.238281 110.847656 156.414063 110.847656 155.058594 L 110.847656 151.953125 C 110.847656 149.480469 110.324219 148.207031 108.085938 148.207031 C 105.613281 148.207031 104.429688 149.507813 104.429688 152.085938 L 104.429688 155.351563 "/>
</g>
<g clip-path="url(#clip7)" clip-rule="nonzero">
<path style=" stroke:none;fill-rule:nonzero;fill:rgb(14.498901%,23.899841%,50.999451%);fill-opacity:1;" d="M 108.171875 53.183594 L 131.128906 50.425781 L 110.523438 47.957031 L 123.839844 30.890625 L 105.675781 45.332031 L 120.035156 27.046875 L 101.929688 41.546875 L 116.289063 23.261719 L 98.207031 37.789063 L 112.597656 19.535156 L 94.515625 34.0625 L 108.902344 15.804688 L 90.796875 30.304688 L 105.15625 12.019531 L 87.046875 26.519531 L 101.351563 8.179688 L 84.1875 21.832031 L 81.621094 0.00390625 L 78.890625 23.1875 L 76.242188 0.00390625 L 73.59375 23.1875 L 70.941406 0.00390625 L 68.328125 23.1875 L 65.71875 0.00390625 L 63.109375 23.1875 L 60.5 0.00390625 L 57.847656 23.1875 L 55.199219 0.00390625 L 52.546875 23.1875 L 49.816406 0.00390625 L 47.304688 21.382813 L 30.816406 8.265625 L 45.117188 26.605469 L 27.011719 12.105469 L 41.371094 30.390625 L 23.261719 15.890625 L 37.648438 34.148438 L 19.570313 19.617188 L 33.960938 37.875 L 15.878906 23.347656 L 30.238281 41.632813 L 12.132813 27.132813 L 26.488281 45.414063 L 8.324219 30.972656 L 21.492188 47.851563 L 0 50.425781 L 22.957031 53.183594 L 0 55.859375 L 22.957031 58.535156 L 0 61.210938 L 22.957031 63.847656 L 0 66.484375 L 22.957031 69.121094 L 0 71.757813 L 22.957031 74.433594 L 0 77.109375 L 22.957031 79.785156 L 0 82.542969 L 21.550781 85.128906 L 8.1875 102.253906 L 26.351563 87.8125 L 11.992188 106.097656 L 30.101563 91.597656 L 15.742188 109.882813 L 33.820313 95.351563 L 19.433594 113.609375 L 37.515625 99.082031 L 23.125 117.335938 L 41.234375 102.835938 L 26.875 121.121094 L 44.980469 106.621094 L 30.679688 124.964844 L 47.3125 111.730469 L 49.816406 133.046875 L 52.546875 109.863281 L 55.199219 133.046875 L 57.847656 109.863281 L 60.5 133.046875 L 63.109375 109.863281 L 65.71875 133.046875 L 68.328125 109.863281 L 70.941406 133.046875 L 73.59375 109.863281 L 76.242188 133.046875 L 78.890625 109.863281 L 81.621094 133.046875 L 84.191406 111.191406 L 101.050781 124.605469 L 86.746094 106.261719 L 104.855469 120.761719 L 90.496094 102.476563 L 108.601563 116.976563 L 94.214844 98.722656 L 112.292969 113.25 L 97.90625 94.992188 L 115.984375 109.523438 L 101.628906 91.238281 L 119.734375 105.738281 L 105.375 87.453125 L 123.539063 101.894531 L 110.382813 85.03125 L 131.128906 82.542969 L 108.171875 79.785156 L 131.128906 77.109375 L 108.171875 74.433594 L 131.128906 71.757813 L 108.171875 69.121094 L 131.128906 66.484375 L 108.171875 63.847656 L 131.128906 61.210938 L 108.171875 58.535156 L 131.128906 55.859375 Z M 42.691406 43.90625 C 43.296875 43.90625 43.789063 44.398438 43.789063 45.011719 C 43.789063 45.621094 43.296875 46.117188 42.691406 46.117188 C 42.085938 46.117188 41.597656 45.621094 41.597656 45.011719 C 41.597656 44.398438 42.085938 43.90625 42.691406 43.90625 M 41.597656 50.605469 C 42.382813 50.605469 43.015625 51.246094 43.015625 52.039063 C 43.015625 52.832031 42.382813 53.472656 41.597656 53.472656 C 40.8125 53.472656 40.175781 52.832031 40.175781 52.039063 C 40.175781 51.246094 40.8125 50.605469 41.597656 50.605469 M 40.917969 57.355469 C 41.929688 57.355469 42.75 58.183594 42.75 59.207031 C 42.75 60.226563 41.929688 61.058594 40.917969 61.058594 C 39.90625 61.058594 39.085938 60.226563 39.085938 59.207031 C 39.085938 58.183594 39.90625 57.355469 40.917969 57.355469 M 36.84375 52.113281 C 37.328125 52.113281 37.722656 52.511719 37.722656 53 C 37.722656 53.488281 37.328125 53.886719 36.84375 53.886719 C 36.359375 53.886719 35.964844 53.488281 35.964844 53 C 35.964844 52.511719 36.359375 52.113281 36.84375 52.113281 M 35.148438 58.769531 C 35.78125 58.769531 36.292969 59.285156 36.292969 59.921875 C 36.292969 60.5625 35.78125 61.078125 35.148438 61.078125 C 34.515625 61.078125 34.003906 60.5625 34.003906 59.921875 C 34.003906 59.285156 34.515625 58.769531 35.148438 58.769531 M 33.140625 53.257813 C 33.515625 53.257813 33.820313 53.566406 33.820313 53.945313 C 33.820313 54.324219 33.515625 54.632813 33.140625 54.632813 C 32.761719 54.632813 32.460938 54.324219 32.460938 53.945313 C 32.460938 53.566406 32.761719 53.257813 33.140625 53.257813 M 29.109375 67.78125 C 29.109375 67.179688 29.59375 66.691406 30.191406 66.691406 C 30.789063 66.691406 31.269531 67.179688 31.269531 67.78125 C 31.269531 68.382813 30.789063 68.871094 30.191406 68.871094 C 29.59375 68.871094 29.109375 68.382813 29.109375 67.78125 M 31.078125 75.648438 C 30.703125 75.648438 30.398438 75.34375 30.398438 74.964844 C 30.398438 74.585938 30.703125 74.277344 31.078125 74.277344 C 31.453125 74.277344 31.757813 74.585938 31.757813 74.964844 C 31.757813 75.34375 31.453125 75.648438 31.078125 75.648438 M 31.078125 61.257813 C 30.703125 61.257813 30.398438 60.953125 30.398438 60.574219 C 30.398438 60.191406 30.703125 59.886719 31.078125 59.886719 C 31.453125 59.886719 31.757813 60.191406 31.757813 60.574219 C 31.757813 60.953125 31.453125 61.257813 31.078125 61.257813 M 33.140625 82.277344 C 32.761719 82.277344 32.460938 81.972656 32.460938 81.59375 C 32.460938 81.214844 32.761719 80.90625 33.140625 80.90625 C 33.515625 80.90625 33.820313 81.214844 33.820313 81.59375 C 33.820313 81.972656 33.515625 82.277344 33.140625 82.277344 M 33.324219 67.78125 C 33.324219 66.917969 34.015625 66.222656 34.871094 66.222656 C 35.726563 66.222656 36.417969 66.917969 36.417969 67.78125 C 36.417969 68.644531 35.726563 69.347656 34.871094 69.347656 C 34.015625 69.347656 33.324219 68.644531 33.324219 67.78125 M 35.148438 76.769531 C 34.515625 76.769531 34.003906 76.25 34.003906 75.613281 C 34.003906 74.976563 34.515625 74.457031 35.148438 74.457031 C 35.78125 74.457031 36.292969 74.976563 36.292969 75.613281 C 36.292969 76.25 35.78125 76.769531 35.148438 76.769531 M 35.964844 82.535156 C 35.964844 82.046875 36.359375 81.648438 36.84375 81.648438 C 37.328125 81.648438 37.722656 82.046875 37.722656 82.535156 C 37.722656 83.023438 37.328125 83.421875 36.84375 83.421875 C 36.359375 83.421875 35.964844 83.023438 35.964844 82.535156 M 37.730469 90.105469 C 37.355469 90.105469 37.050781 89.796875 37.050781 89.417969 C 37.050781 89.039063 37.355469 88.730469 37.730469 88.730469 C 38.105469 88.730469 38.410156 89.039063 38.410156 89.417969 C 38.410156 89.796875 38.105469 90.105469 37.730469 90.105469 M 37.730469 46.804688 C 37.355469 46.804688 37.050781 46.496094 37.050781 46.117188 C 37.050781 45.738281 37.355469 45.433594 37.730469 45.433594 C 38.105469 45.433594 38.410156 45.738281 38.410156 46.117188 C 38.410156 46.496094 38.105469 46.804688 37.730469 46.804688 M 40.640625 65.753906 C 41.753906 65.753906 42.652344 66.664063 42.652344 67.785156 C 42.652344 68.90625 41.753906 69.816406 40.640625 69.816406 C 39.53125 69.816406 38.628906 68.90625 38.628906 67.785156 C 38.628906 66.664063 39.53125 65.753906 40.640625 65.753906 M 39.085938 76.332031 C 39.085938 75.308594 39.90625 74.480469 40.917969 74.480469 C 41.929688 74.480469 42.75 75.308594 42.75 76.332031 C 42.75 77.351563 41.929688 78.179688 40.917969 78.179688 C 39.90625 78.179688 39.085938 77.351563 39.085938 76.332031 M 40.175781 83.496094 C 40.175781 82.703125 40.8125 82.0625 41.597656 82.0625 C 42.382813 82.0625 43.015625 82.703125 43.015625 83.496094 C 43.015625 84.289063 42.382813 84.929688 41.597656 84.929688 C 40.8125 84.929688 40.175781 84.289063 40.175781 83.496094 M 41.597656 90.523438 C 41.597656 89.914063 42.085938 89.417969 42.691406 89.417969 C 43.296875 89.417969 43.789063 89.914063 43.789063 90.523438 C 43.789063 91.136719 43.296875 91.632813 42.691406 91.632813 C 42.085938 91.632813 41.597656 91.136719 41.597656 90.523438 M 43.980469 96.4375 C 43.605469 96.4375 43.300781 96.128906 43.300781 95.75 C 43.300781 95.371094 43.605469 95.0625 43.980469 95.0625 C 44.355469 95.0625 44.660156 95.371094 44.660156 95.75 C 44.660156 96.128906 44.355469 96.4375 43.980469 96.4375 M 43.980469 40.472656 C 43.605469 40.472656 43.300781 40.164063 43.300781 39.785156 C 43.300781 39.40625 43.605469 39.101563 43.980469 39.101563 C 44.355469 39.101563 44.660156 39.40625 44.660156 39.785156 C 44.660156 40.164063 44.355469 40.472656 43.980469 40.472656 M 50.519531 38.117188 C 51.066406 38.117188 51.507813 38.5625 51.507813 39.117188 C 51.507813 39.667969 51.066406 40.117188 50.519531 40.117188 C 49.972656 40.117188 49.527344 39.667969 49.527344 39.117188 C 49.527344 38.5625 49.972656 38.117188 50.519531 38.117188 M 49.679688 42.59375 C 50.402344 42.59375 50.988281 43.1875 50.988281 43.917969 C 50.988281 44.648438 50.402344 45.242188 49.679688 45.242188 C 48.953125 45.242188 48.367188 44.648438 48.367188 43.917969 C 48.367188 43.1875 48.953125 42.59375 49.679688 42.59375 M 48.632813 49.214844 C 49.605469 49.214844 50.398438 50.011719 50.398438 50.996094 C 50.398438 51.980469 49.605469 52.78125 48.632813 52.78125 C 47.65625 52.78125 46.867188 51.980469 46.867188 50.996094 C 46.867188 50.011719 47.65625 49.214844 48.632813 49.214844 M 47.960938 56.609375 C 49.046875 56.609375 49.929688 57.5 49.929688 58.601563 C 49.929688 59.699219 49.046875 60.589844 47.960938 60.589844 C 46.871094 60.589844 45.988281 59.699219 45.988281 58.601563 C 45.988281 57.5 46.871094 56.609375 47.960938 56.609375 M 47.886719 65.179688 C 49.308594 65.179688 50.464844 66.34375 50.464844 67.78125 C 50.464844 69.214844 49.308594 70.378906 47.886719 70.378906 C 46.464844 70.378906 45.3125 69.214844 45.3125 67.78125 C 45.3125 66.34375 46.464844 65.179688 47.886719 65.179688 M 45.988281 76.9375 C 45.988281 75.835938 46.871094 74.945313 47.960938 74.945313 C 49.046875 74.945313 49.929688 75.835938 49.929688 76.9375 C 49.929688 78.035156 49.046875 78.925781 47.960938 78.925781 C 46.871094 78.925781 45.988281 78.035156 45.988281 76.9375 M 46.867188 84.539063 C 46.867188 83.554688 47.65625 82.757813 48.632813 82.757813 C 49.605469 82.757813 50.398438 83.554688 50.398438 84.539063 C 50.398438 85.523438 49.605469 86.320313 48.632813 86.320313 C 47.65625 86.320313 46.867188 85.523438 46.867188 84.539063 M 48.367188 91.617188 C 48.367188 90.886719 48.953125 90.292969 49.679688 90.292969 C 50.402344 90.292969 50.988281 90.886719 50.988281 91.617188 C 50.988281 92.351563 50.402344 92.941406 49.679688 92.941406 C 48.953125 92.941406 48.367188 92.351563 48.367188 91.617188 M 49.527344 96.421875 C 49.527344 95.867188 49.972656 95.421875 50.519531 95.421875 C 51.066406 95.421875 51.507813 95.867188 51.507813 96.421875 C 51.507813 96.972656 51.066406 97.421875 50.519531 97.421875 C 49.972656 97.421875 49.527344 96.972656 49.527344 96.421875 M 51.554688 100.878906 C 51.179688 100.878906 50.875 100.570313 50.875 100.191406 C 50.875 99.8125 51.179688 99.503906 51.554688 99.503906 C 51.929688 99.503906 52.234375 99.8125 52.234375 100.191406 C 52.234375 100.570313 51.929688 100.878906 51.554688 100.878906 M 51.554688 36.03125 C 51.179688 36.03125 50.875 35.722656 50.875 35.34375 C 50.875 34.964844 51.179688 34.65625 51.554688 34.65625 C 51.929688 34.65625 52.234375 34.964844 52.234375 35.34375 C 52.234375 35.722656 51.929688 36.03125 51.554688 36.03125 M 58.125 32.597656 C 58.5 32.597656 58.804688 32.902344 58.804688 33.28125 C 58.804688 33.660156 58.5 33.96875 58.125 33.96875 C 57.75 33.96875 57.445313 33.660156 57.445313 33.28125 C 57.445313 32.902344 57.75 32.597656 58.125 32.597656 M 57.484375 36.089844 C 58.183594 36.089844 58.746094 36.660156 58.746094 37.367188 C 58.746094 38.070313 58.183594 38.644531 57.484375 38.644531 C 56.785156 38.644531 56.21875 38.070313 56.21875 37.367188 C 56.21875 36.660156 56.785156 36.089844 57.484375 36.089844 M 56.777344 41.488281 C 57.730469 41.488281 58.503906 42.269531 58.503906 43.230469 C 58.503906 44.191406 57.730469 44.972656 56.777344 44.972656 C 55.828125 44.972656 55.054688 44.191406 55.054688 43.230469 C 55.054688 42.269531 55.828125 41.488281 56.777344 41.488281 M 56.160156 48.355469 C 57.230469 48.355469 58.097656 49.234375 58.097656 50.316406 C 58.097656 51.398438 57.230469 52.273438 56.160156 52.273438 C 55.089844 52.273438 54.21875 51.398438 54.21875 50.316406 C 54.21875 49.234375 55.089844 48.355469 56.160156 48.355469 M 55.757813 55.953125 C 56.984375 55.953125 57.976563 56.957031 57.976563 58.191406 C 57.976563 59.429688 56.984375 60.429688 55.757813 60.429688 C 54.535156 60.429688 53.542969 59.429688 53.542969 58.191406 C 53.542969 56.957031 54.535156 55.953125 55.757813 55.953125 M 53.542969 77.34375 C 53.542969 76.109375 54.535156 75.105469 55.757813 75.105469 C 56.984375 75.105469 57.976563 76.109375 57.976563 77.34375 C 57.976563 78.578125 56.984375 79.582031 55.757813 79.582031 C 54.535156 79.582031 53.542969 78.578125 53.542969 77.34375 M 54.21875 85.222656 C 54.21875 84.140625 55.089844 83.261719 56.160156 83.261719 C 57.230469 83.261719 58.097656 84.140625 58.097656 85.222656 C 58.097656 86.304688 57.230469 87.179688 56.160156 87.179688 C 55.089844 87.179688 54.21875 86.304688 54.21875 85.222656 M 55.054688 92.304688 C 55.054688 91.34375 55.828125 90.566406 56.777344 90.566406 C 57.730469 90.566406 58.503906 91.34375 58.503906 92.304688 C 58.503906 93.269531 57.730469 94.046875 56.777344 94.046875 C 55.828125 94.046875 55.054688 93.269531 55.054688 92.304688 M 56.21875 98.171875 C 56.21875 97.464844 56.785156 96.894531 57.484375 96.894531 C 58.183594 96.894531 58.746094 97.464844 58.746094 98.171875 C 58.746094 98.875 58.183594 99.445313 57.484375 99.445313 C 56.785156 99.445313 56.21875 98.875 56.21875 98.171875 M 58.125 102.941406 C 57.75 102.941406 57.445313 102.632813 57.445313 102.253906 C 57.445313 101.875 57.75 101.566406 58.125 101.566406 C 58.5 101.566406 58.804688 101.875 58.804688 102.253906 C 58.804688 102.632813 58.5 102.941406 58.125 102.941406 M 56.070313 71.152344 C 54.222656 71.152344 52.726563 69.644531 52.726563 67.78125 C 52.726563 65.914063 54.222656 64.40625 56.070313 64.40625 C 57.914063 64.40625 59.410156 65.914063 59.410156 67.78125 C 59.410156 69.644531 57.914063 71.152344 56.070313 71.152344 M 65.261719 31.851563 C 65.640625 31.851563 65.941406 32.160156 65.941406 32.539063 C 65.941406 32.917969 65.640625 33.226563 65.261719 33.226563 C 64.886719 33.226563 64.582031 32.917969 64.582031 32.539063 C 64.582031 32.160156 64.886719 31.851563 65.261719 31.851563 M 65.265625 35.566406 C 65.960938 35.566406 66.527344 36.140625 66.527344 36.84375 C 66.527344 37.550781 65.960938 38.121094 65.265625 38.121094 C 64.566406 38.121094 64 37.550781 64 36.84375 C 64 36.140625 64.566406 35.566406 65.265625 35.566406 M 65.265625 41.199219 C 66.21875 41.199219 66.988281 41.980469 66.988281 42.941406 C 66.988281 43.90625 66.21875 44.683594 65.265625 44.683594 C 64.3125 44.683594 63.539063 43.90625 63.539063 42.941406 C 63.539063 41.980469 64.3125 41.199219 65.265625 41.199219 M 65.265625 47.925781 C 66.425781 47.925781 67.367188 48.875 67.367188 50.046875 C 67.367188 51.21875 66.425781 52.167969 65.265625 52.167969 C 64.105469 52.167969 63.164063 51.21875 63.164063 50.046875 C 63.164063 48.875 64.105469 47.925781 65.265625 47.925781 M 65.269531 55.746094 C 66.6875 55.746094 67.839844 56.90625 67.839844 58.34375 C 67.839844 59.777344 66.6875 60.941406 65.269531 60.941406 C 63.847656 60.941406 62.695313 59.777344 62.695313 58.34375 C 62.695313 56.90625 63.847656 55.746094 65.269531 55.746094 M 65.261719 103.683594 C 64.886719 103.683594 64.582031 103.375 64.582031 102.996094 C 64.582031 102.617188 64.886719 102.3125 65.261719 102.3125 C 65.640625 102.3125 65.941406 102.617188 65.941406 102.996094 C 65.941406 103.375 65.640625 103.683594 65.261719 103.683594 M 65.265625 99.96875 C 64.566406 99.96875 64 99.398438 64 98.691406 C 64 97.988281 64.566406 97.414063 65.265625 97.414063 C 65.960938 97.414063 66.527344 97.988281 66.527344 98.691406 C 66.527344 99.398438 65.960938 99.96875 65.265625 99.96875 M 65.265625 94.335938 C 64.3125 94.335938 63.539063 93.554688 63.539063 92.59375 C 63.539063 91.632813 64.3125 90.851563 65.265625 90.851563 C 66.21875 90.851563 66.988281 91.632813 66.988281 92.59375 C 66.988281 93.554688 66.21875 94.335938 65.265625 94.335938 M 65.265625 87.609375 C 64.105469 87.609375 63.164063 86.660156 63.164063 85.488281 C 63.164063 84.320313 64.105469 83.367188 65.265625 83.367188 C 66.425781 83.367188 67.367188 84.320313 67.367188 85.488281 C 67.367188 86.660156 66.425781 87.609375 65.265625 87.609375 M 65.269531 79.789063 C 63.847656 79.789063 62.695313 78.628906 62.695313 77.195313 C 62.695313 75.757813 63.847656 74.597656 65.269531 74.597656 C 66.6875 74.597656 67.839844 75.757813 67.839844 77.195313 C 67.839844 78.628906 66.6875 79.789063 65.269531 79.789063 M 65.261719 71.710938 C 63.109375 71.710938 61.367188 69.949219 61.367188 67.78125 C 61.367188 65.609375 63.109375 63.847656 65.261719 63.847656 C 67.410156 63.847656 69.152344 65.609375 69.152344 67.78125 C 69.152344 69.949219 67.410156 71.710938 65.261719 71.710938 M 95.371094 58.769531 C 96.003906 58.769531 96.515625 59.285156 96.515625 59.921875 C 96.515625 60.5625 96.003906 61.078125 95.371094 61.078125 C 94.742188 61.078125 94.230469 60.5625 94.230469 59.921875 C 94.230469 59.285156 94.742188 58.769531 95.371094 58.769531 M 97.195313 67.78125 C 97.195313 68.644531 96.503906 69.347656 95.648438 69.347656 C 94.796875 69.347656 94.101563 68.644531 94.101563 67.78125 C 94.101563 66.917969 94.796875 66.222656 95.648438 66.222656 C 96.503906 66.222656 97.195313 66.917969 97.195313 67.78125 M 94.554688 53 C 94.554688 53.488281 94.160156 53.886719 93.675781 53.886719 C 93.191406 53.886719 92.800781 53.488281 92.800781 53 C 92.800781 52.511719 93.191406 52.113281 93.675781 52.113281 C 94.160156 52.113281 94.554688 52.511719 94.554688 53 M 92.789063 45.433594 C 93.167969 45.433594 93.472656 45.738281 93.472656 46.117188 C 93.472656 46.496094 93.167969 46.804688 92.789063 46.804688 C 92.414063 46.804688 92.109375 46.496094 92.109375 46.117188 C 92.109375 45.738281 92.414063 45.433594 92.789063 45.433594 M 91.4375 59.207031 C 91.4375 60.226563 90.617188 61.058594 89.601563 61.058594 C 88.589844 61.058594 87.769531 60.226563 87.769531 59.207031 C 87.769531 58.183594 88.589844 57.355469 89.601563 57.355469 C 90.617188 57.355469 91.4375 58.183594 91.4375 59.207031 M 90.34375 52.039063 C 90.34375 52.832031 89.707031 53.472656 88.925781 53.472656 C 88.140625 53.472656 87.503906 52.832031 87.503906 52.039063 C 87.503906 51.246094 88.140625 50.605469 88.925781 50.605469 C 89.707031 50.605469 90.34375 51.246094 90.34375 52.039063 M 88.089844 33.039063 L 87.917969 33.261719 C 87.898438 33.246094 87.882813 33.234375 87.863281 33.222656 Z M 88.925781 45.011719 C 88.925781 45.621094 88.433594 46.117188 87.828125 46.117188 C 87.222656 46.117188 86.734375 45.621094 86.734375 45.011719 C 86.734375 44.398438 87.222656 43.90625 87.828125 43.90625 C 88.433594 43.90625 88.925781 44.398438 88.925781 45.011719 M 86.539063 39.101563 C 86.914063 39.101563 87.21875 39.40625 87.21875 39.785156 C 87.21875 40.164063 86.914063 40.472656 86.539063 40.472656 C 86.164063 40.472656 85.859375 40.164063 85.859375 39.785156 C 85.859375 39.40625 86.164063 39.101563 86.539063 39.101563 M 84.0625 29.476563 L 84.34375 29.253906 L 84.042969 29.636719 Z M 84.535156 58.601563 C 84.535156 59.699219 83.652344 60.589844 82.5625 60.589844 C 81.472656 60.589844 80.589844 59.699219 80.589844 58.601563 C 80.589844 57.5 81.472656 56.609375 82.5625 56.609375 C 83.652344 56.609375 84.535156 57.5 84.535156 58.601563 M 83.652344 50.996094 C 83.652344 51.980469 82.863281 52.78125 81.890625 52.78125 C 80.914063 52.78125 80.121094 51.980469 80.121094 50.996094 C 80.121094 50.011719 80.914063 49.214844 81.890625 49.214844 C 82.863281 49.214844 83.652344 50.011719 83.652344 50.996094 M 82.15625 43.917969 C 82.15625 44.648438 81.566406 45.242188 80.84375 45.242188 C 80.117188 45.242188 79.53125 44.648438 79.53125 43.917969 C 79.53125 43.1875 80.117188 42.59375 80.84375 42.59375 C 81.566406 42.59375 82.15625 43.1875 82.15625 43.917969 M 80.992188 39.117188 C 80.992188 39.667969 80.550781 40.117188 80.003906 40.117188 C 79.453125 40.117188 79.011719 39.667969 79.011719 39.117188 C 79.011719 38.5625 79.453125 38.117188 80.003906 38.117188 C 80.550781 38.117188 80.992188 38.5625 80.992188 39.117188 M 78.890625 27.050781 L 78.929688 27.355469 L 78.84375 27.460938 Z M 78.964844 34.65625 C 79.34375 34.65625 79.644531 34.964844 79.644531 35.34375 C 79.644531 35.722656 79.34375 36.03125 78.964844 36.03125 C 78.589844 36.03125 78.285156 35.722656 78.285156 35.34375 C 78.285156 34.964844 78.589844 34.65625 78.964844 34.65625 M 76.980469 58.191406 C 76.980469 59.429688 75.984375 60.429688 74.761719 60.429688 C 73.539063 60.429688 72.546875 59.429688 72.546875 58.191406 C 72.546875 56.957031 73.539063 55.953125 74.761719 55.953125 C 75.984375 55.953125 76.980469 56.957031 76.980469 58.191406 M 76.300781 50.316406 C 76.300781 51.398438 75.433594 52.273438 74.359375 52.273438 C 73.289063 52.273438 72.421875 51.398438 72.421875 50.316406 C 72.421875 49.234375 73.289063 48.355469 74.359375 48.355469 C 75.433594 48.355469 76.300781 49.234375 76.300781 50.316406 M 75.464844 43.230469 C 75.464844 44.191406 74.695313 44.972656 73.742188 44.972656 C 72.789063 44.972656 72.015625 44.191406 72.015625 43.230469 C 72.015625 42.269531 72.789063 41.488281 73.742188 41.488281 C 74.695313 41.488281 75.464844 42.269531 75.464844 43.230469 M 74.300781 37.367188 C 74.300781 38.070313 73.734375 38.644531 73.035156 38.644531 C 72.339844 38.644531 71.773438 38.070313 71.773438 37.367188 C 71.773438 36.660156 72.339844 36.089844 73.035156 36.089844 C 73.734375 36.089844 74.300781 36.660156 74.300781 37.367188 M 72.394531 32.597656 C 72.769531 32.597656 73.074219 32.902344 73.074219 33.28125 C 73.074219 33.660156 72.769531 33.96875 72.394531 33.96875 C 72.019531 33.96875 71.714844 33.660156 71.714844 33.28125 C 71.714844 32.902344 72.019531 32.597656 72.394531 32.597656 M 72.394531 102.941406 C 72.019531 102.941406 71.714844 102.632813 71.714844 102.253906 C 71.714844 101.875 72.019531 101.566406 72.394531 101.566406 C 72.769531 101.566406 73.074219 101.875 73.074219 102.253906 C 73.074219 102.632813 72.769531 102.941406 72.394531 102.941406 M 73.035156 99.445313 C 72.339844 99.445313 71.773438 98.875 71.773438 98.171875 C 71.773438 97.464844 72.339844 96.894531 73.035156 96.894531 C 73.734375 96.894531 74.300781 97.464844 74.300781 98.171875 C 74.300781 98.875 73.734375 99.445313 73.035156 99.445313 M 73.742188 94.046875 C 72.789063 94.046875 72.015625 93.269531 72.015625 92.304688 C 72.015625 91.34375 72.789063 90.566406 73.742188 90.566406 C 74.695313 90.566406 75.464844 91.34375 75.464844 92.304688 C 75.464844 93.269531 74.695313 94.046875 73.742188 94.046875 M 74.359375 87.179688 C 73.289063 87.179688 72.421875 86.304688 72.421875 85.222656 C 72.421875 84.140625 73.289063 83.261719 74.359375 83.261719 C 75.433594 83.261719 76.300781 84.140625 76.300781 85.222656 C 76.300781 86.304688 75.433594 87.179688 74.359375 87.179688 M 74.761719 79.582031 C 73.539063 79.582031 72.546875 78.578125 72.546875 77.34375 C 72.546875 76.109375 73.539063 75.105469 74.761719 75.105469 C 75.984375 75.105469 76.980469 76.109375 76.980469 77.34375 C 76.980469 78.578125 75.984375 79.582031 74.761719 79.582031 M 74.449219 71.152344 C 72.605469 71.152344 71.109375 69.644531 71.109375 67.78125 C 71.109375 65.914063 72.605469 64.40625 74.449219 64.40625 C 76.296875 64.40625 77.792969 65.914063 77.792969 67.78125 C 77.792969 69.644531 76.296875 71.152344 74.449219 71.152344 M 78.964844 100.878906 C 78.589844 100.878906 78.285156 100.570313 78.285156 100.191406 C 78.285156 99.8125 78.589844 99.503906 78.964844 99.503906 C 79.34375 99.503906 79.644531 99.8125 79.644531 100.191406 C 79.644531 100.570313 79.34375 100.878906 78.964844 100.878906 M 80.003906 97.421875 C 79.453125 97.421875 79.011719 96.972656 79.011719 96.421875 C 79.011719 95.867188 79.453125 95.421875 80.003906 95.421875 C 80.550781 95.421875 80.992188 95.867188 80.992188 96.421875 C 80.992188 96.972656 80.550781 97.421875 80.003906 97.421875 M 80.84375 92.941406 C 80.117188 92.941406 79.53125 92.351563 79.53125 91.617188 C 79.53125 90.886719 80.117188 90.292969 80.84375 90.292969 C 81.566406 90.292969 82.15625 90.886719 82.15625 91.617188 C 82.15625 92.351563 81.566406 92.941406 80.84375 92.941406 M 81.890625 86.320313 C 80.914063 86.320313 80.121094 85.523438 80.121094 84.539063 C 80.121094 83.554688 80.914063 82.757813 81.890625 82.757813 C 82.863281 82.757813 83.652344 83.554688 83.652344 84.539063 C 83.652344 85.523438 82.863281 86.320313 81.890625 86.320313 M 82.5625 78.925781 C 81.472656 78.925781 80.589844 78.035156 80.589844 76.9375 C 80.589844 75.835938 81.472656 74.945313 82.5625 74.945313 C 83.652344 74.945313 84.535156 75.835938 84.535156 76.9375 C 84.535156 78.035156 83.652344 78.925781 82.5625 78.925781 M 82.632813 70.378906 C 81.210938 70.378906 80.058594 69.214844 80.058594 67.78125 C 80.058594 66.34375 81.210938 65.179688 82.632813 65.179688 C 84.054688 65.179688 85.207031 66.34375 85.207031 67.78125 C 85.207031 69.214844 84.054688 70.378906 82.632813 70.378906 M 86.539063 96.4375 C 86.164063 96.4375 85.859375 96.128906 85.859375 95.75 C 85.859375 95.371094 86.164063 95.0625 86.539063 95.0625 C 86.914063 95.0625 87.21875 95.371094 87.21875 95.75 C 87.21875 96.128906 86.914063 96.4375 86.539063 96.4375 M 87.828125 91.632813 C 87.222656 91.632813 86.734375 91.136719 86.734375 90.523438 C 86.734375 89.914063 87.222656 89.417969 87.828125 89.417969 C 88.433594 89.417969 88.925781 89.914063 88.925781 90.523438 C 88.925781 91.136719 88.433594 91.632813 87.828125 91.632813 M 88.925781 84.929688 C 88.140625 84.929688 87.503906 84.289063 87.503906 83.496094 C 87.503906 82.703125 88.140625 82.0625 88.925781 82.0625 C 89.707031 82.0625 90.34375 82.703125 90.34375 83.496094 C 90.34375 84.289063 89.707031 84.929688 88.925781 84.929688 M 89.601563 78.179688 C 88.589844 78.179688 87.769531 77.351563 87.769531 76.332031 C 87.769531 75.308594 88.589844 74.480469 89.601563 74.480469 C 90.617188 74.480469 91.4375 75.308594 91.4375 76.332031 C 91.4375 77.351563 90.617188 78.179688 89.601563 78.179688 M 89.878906 69.816406 C 88.769531 69.816406 87.867188 68.90625 87.867188 67.785156 C 87.867188 66.664063 88.769531 65.753906 89.878906 65.753906 C 90.992188 65.753906 91.890625 66.664063 91.890625 67.785156 C 91.890625 68.90625 90.992188 69.816406 89.878906 69.816406 M 92.789063 90.105469 C 92.414063 90.105469 92.109375 89.796875 92.109375 89.417969 C 92.109375 89.039063 92.414063 88.730469 92.789063 88.730469 C 93.167969 88.730469 93.472656 89.039063 93.472656 89.417969 C 93.472656 89.796875 93.167969 90.105469 92.789063 90.105469 M 93.675781 83.421875 C 93.191406 83.421875 92.800781 83.023438 92.800781 82.535156 C 92.800781 82.046875 93.191406 81.648438 93.675781 81.648438 C 94.160156 81.648438 94.554688 82.046875 94.554688 82.535156 C 94.554688 83.023438 94.160156 83.421875 93.675781 83.421875 M 95.371094 76.769531 C 94.742188 76.769531 94.230469 76.25 94.230469 75.613281 C 94.230469 74.976563 94.742188 74.457031 95.371094 74.457031 C 96.003906 74.457031 96.515625 74.976563 96.515625 75.613281 C 96.515625 76.25 96.003906 76.769531 95.371094 76.769531 M 97.382813 82.277344 C 97.007813 82.277344 96.703125 81.972656 96.703125 81.59375 C 96.703125 81.214844 97.007813 80.90625 97.382813 80.90625 C 97.757813 80.90625 98.0625 81.214844 98.0625 81.59375 C 98.0625 81.972656 97.757813 82.277344 97.382813 82.277344 M 97.382813 54.632813 C 97.007813 54.632813 96.703125 54.324219 96.703125 53.945313 C 96.703125 53.566406 97.007813 53.257813 97.382813 53.257813 C 97.757813 53.257813 98.0625 53.566406 98.0625 53.945313 C 98.0625 54.324219 97.757813 54.632813 97.382813 54.632813 M 99.222656 44.28125 L 98.945313 44.632813 C 98.929688 44.601563 98.910156 44.574219 98.890625 44.546875 Z M 99.441406 59.886719 C 99.816406 59.886719 100.121094 60.191406 100.121094 60.574219 C 100.121094 60.953125 99.816406 61.257813 99.441406 61.257813 C 99.066406 61.257813 98.761719 60.953125 98.761719 60.574219 C 98.761719 60.191406 99.066406 59.886719 99.441406 59.886719 M 99.441406 75.648438 C 99.066406 75.648438 98.761719 75.34375 98.761719 74.964844 C 98.761719 74.585938 99.066406 74.277344 99.441406 74.277344 C 99.816406 74.277344 100.121094 74.585938 100.121094 74.964844 C 100.121094 75.34375 99.816406 75.648438 99.441406 75.648438 M 100.328125 68.871094 C 99.734375 68.871094 99.25 68.382813 99.25 67.78125 C 99.25 67.179688 99.734375 66.691406 100.328125 66.691406 C 100.925781 66.691406 101.410156 67.179688 101.410156 67.78125 C 101.410156 68.382813 100.925781 68.871094 100.328125 68.871094 "/>
</g>
</g>
</svg>
