<svg xmlns="http://www.w3.org/2000/svg" xmlns:xlink="http://www.w3.org/1999/xlink" version="1.1" width="1080px" height="1080px" style="shape-rendering:geometricPrecision; text-rendering:geometricPrecision; image-rendering:optimizeQuality; fillRule:evenodd; clip-rule:evenodd">
<g><path style="opacity:0.993" fill="#344e41" d="M 477.5,288.5 C 416.101,239.761 354.435,191.428 292.5,143.5C 292.414,142.504 292.748,141.671 293.5,141C 395.281,85.9115 503.614,65.9115 618.5,81C 715.332,92.7957 799.999,130.796 872.5,195C 900.664,220.805 924.664,249.805 944.5,282C 875.028,314.984 805.528,348.15 736,381.5C 722.64,365.464 708.474,349.964 693.5,335C 676.705,320.761 658.372,308.761 638.5,299C 598.662,284.562 557.662,279.562 515.5,284C 502.767,285.026 490.1,286.526 477.5,288.5 Z"/></g>
<g><path style="opacity:0.995" fill="#344e41" d="M 292.5,143.5 C 354.435,191.428 416.101,239.761 477.5,288.5C 447.481,298.009 420.147,312.509 395.5,332C 355.757,371.98 330.59,419.813 320,475.5C 318.343,484.763 317.343,494.096 317,503.5C 316.132,529.501 315.299,555.501 314.5,581.5C 313.726,582.147 312.726,582.48 311.5,582.5C 235.544,572.007 159.544,561.841 83.5,552C 79.9957,551.697 76.6624,550.863 73.5,549.5C 71.6684,384.666 136.668,253.833 268.5,157C 276.365,152.235 284.365,147.735 292.5,143.5 Z"/></g>
<g><path style="opacity:0.994" fill="#344e41" d="M 1002.5,471.5 C 954.733,508.755 907.066,546.255 859.5,584C 829.396,607.707 799.729,631.873 770.5,656.5C 690.172,657.74 609.839,657.74 529.5,656.5C 529.531,594.74 529.531,533.074 529.5,471.5C 687.142,470.227 844.808,470.227 1002.5,471.5 Z"/></g>
<g><path style="opacity:0.994" fill="#344e41" d="M 1002.5,471.5 C 1008.31,542.874 1003.47,613.874 988,684.5C 963.711,790.703 906.544,873.87 816.5,934C 745.363,976.041 668.363,998.707 585.5,1002C 532.54,1005.09 479.874,1001.76 427.5,992C 418.524,990.094 409.857,987.594 401.5,984.5C 457.167,929.167 512.833,873.833 568.5,818.5C 606.745,815.14 643.078,804.974 677.5,788C 705.949,772.551 728.116,750.718 744,722.5C 756.071,701.786 764.904,679.786 770.5,656.5C 799.729,631.873 829.396,607.707 859.5,584C 907.066,546.255 954.733,508.755 1002.5,471.5 Z"/></g>
<g><path style="opacity:0.994" fill="#344e41" d="M 73.5,549.5 C 76.6624,550.863 79.9957,551.697 83.5,552C 159.544,561.841 235.544,572.007 311.5,582.5C 312.726,582.48 313.726,582.147 314.5,581.5C 319.184,603.723 324.351,626.056 330,648.5C 339.155,684.974 355.321,717.807 378.5,747C 400.905,766.882 426.238,782.216 454.5,793C 491.295,806.925 529.295,815.425 568.5,818.5C 512.833,873.833 457.167,929.167 401.5,984.5C 360.17,975.341 321.503,959.841 285.5,938C 210.825,888.836 154.658,823.67 117,742.5C 99.9076,703.222 87.2409,662.556 79,620.5C 75.0136,596.997 73.1803,573.33 73.5,549.5 Z"/></g>
</svg>